# xmcd
#
# Track frame offsets:
#	150
#	13395
#	25767
#	40390
#	56065
#	70962
#	83645
#	97330
#	111105
#	126402
#	139042
#	153332
#
# Disc length: 2271 seconds
# Revision: 3
# Processed by: cddbd v1.5.2PL0 Copyright (c) Steve Scherf et al.
# Submitted via: dBpowerAMP V12.0
#
DISCID=a908dd0c
DTITLE=Dolly Parton - Dolly Parton: 36 All-Time Greatest Hits [Disc 2]
DYEAR=1993
DGENRE=Country
TTITLE0=Here You Come Again
TTITLE1=Elusive Butterfly
TTITLE2=Potential New Boyfriend
TTITLE3=I Walk The Line
TTITLE4=Downtown
TTITLE5=In The Ghetto
TTITLE6=Joshua
TTITLE7=It's All Wrong, But It's All Right
TTITLE8=Apple Jack
TTITLE9=I Can't Help Myself
TTITLE10=Mule Skinner Blues
TTITLE11=Save The Last Dance For Me
EXTD=
EXTT0=
EXTT1=
EXTT2=
EXTT3=
EXTT4=
EXTT5=
EXTT6=
EXTT7=
EXTT8=
EXTT9=
EXTT10=
EXTT11=
PLAYORDER=
